The Eagle [2011] R5 Rip XviD [DAYN]-D3MT-DAYN DOT ORG


Format                           : AVI
Format/Info                      : Audio Video Interleave
File size                        : 938 MiB
Duration                         : 1h 49mn
Overall bit rate                 : 1 199 Kbps
Writing application              : Lavf52.39.1

Video
ID                               : 0
Format                           : MPEG-4 Visual
Format settings, BVOP            : 1
Format settings, QPel            : No
Format settings, GMC             : No warppoints
Format settings, Matrix          : Default (H.263)
Muxing mode                      : Packed bitstream
Codec ID                         : DX50
Codec ID/Hint                    : DivX 5
Duration                         : 1h 49mn
Bit rate                         : 1 058 Kbps
Width                            : 640 pixels
Height                           : 272 pixels
Display aspect ratio             : 2.35:1
Frame rate                       : 25.000 fps
Color space                      : YUV
Chroma subsampling               : 4:2:0
Bit depth                        : 8 bits
Scan type                        : Progressive
Compression mode                 : Lossy
Bits/(Pixel*Frame)               : 0.243
Stream size                      : 829 MiB (88%)
Writing library                  : DivX 6.8.5 (UTC 2009-08-20)

Audio
ID                               : 1
Format                           : MPEG Audio
Format version                   : Version 1
Format profile                   : Layer 3
Mode                             : Joint stereo
Mode extension                   : MS Stereo
Codec ID                         : 55
Codec ID/Hint                    : MP3
Duration                         : 1h 49mn
Bit rate mode                    : Constant
Bit rate                         : 128 Kbps
Channel(s)                       : 2 channels
Sampling rate                    : 44.1 KHz
Compression mode                 : Lossy
Stream size                      : 100 MiB (11%)
Alignment                        : Aligned on interleaves
Interleave, duration             : 26 ms (0.65 video frame)
Writing library                  : LAME3.96.1

Greetz - Imagine